<svg width="166.266mm" height="126.168mm" viewBox="0 0 166.266 126.168" xmlns="http://www.w3.org/2000/svg"><g id="svgGroup" stroke-linecap="round" fill-rule="evenodd" font-size="9pt" stroke="#000" stroke-width="0.25mm" fill="none" style="stroke:#000;stroke-width:0.25mm;fill:none"><path d="M 0.5 93.05 L 42.05 93.05 L 42.05 101.05 L 93.819 101.05 L 135.853 116.349 L 149.876 126.168 L 166.266 102.761 L 148 89.971 L 148 21.3 L 118.1 21.3 L 118.1 8.5 A 0.5 0.5 0 0 0 117.6 8 L 99.1 8 L 99.1 6.5 A 0.5 0.5 0 0 0 98.6 6 L 80.1 6 L 80.1 0.5 A 0.5 0.5 0 0 0 79.6 0 L 61.55 0 A 0.5 0.5 0 0 0 61.05 0.5 L 61.05 5 L 42.55 5 A 0.5 0.5 0 0 0 42.05 5.5 L 42.05 17 L 0.5 17 A 0.5 0.5 0 0 0 0 17.5 L 0 92.55 A 0.5 0.5 0 0 0 0.5 93.05 Z M 140.519 110.72 L 151.987 118.75 L 160.017 107.282 L 148.549 99.252 L 140.519 110.72 Z M 2.525 90.525 L 16.525 90.525 L 16.525 76.525 L 2.525 76.525 L 2.525 90.525 Z M 2.525 71.525 L 16.525 71.525 L 16.525 57.525 L 2.525 57.525 L 2.525 71.525 Z M 2.525 52.525 L 16.525 52.525 L 16.525 38.525 L 2.525 38.525 L 2.525 52.525 Z M 2.525 33.525 L 16.525 33.525 L 16.525 19.525 L 2.525 19.525 L 2.525 33.525 Z M 21.525 90.525 L 35.525 90.525 L 35.525 76.525 L 21.525 76.525 L 21.525 90.525 Z M 21.525 71.525 L 35.525 71.525 L 35.525 57.525 L 21.525 57.525 L 21.525 71.525 Z M 21.525 52.525 L 35.525 52.525 L 35.525 38.525 L 21.525 38.525 L 21.525 52.525 Z M 21.525 33.525 L 35.525 33.525 L 35.525 19.525 L 21.525 19.525 L 21.525 33.525 Z M 44.575 97.525 L 58.575 97.525 L 58.575 83.525 L 44.575 83.525 L 44.575 97.525 Z M 44.575 78.525 L 58.575 78.525 L 58.575 64.525 L 44.575 64.525 L 44.575 78.525 Z M 44.575 59.525 L 58.575 59.525 L 58.575 45.525 L 44.575 45.525 L 44.575 59.525 Z M 44.575 40.525 L 58.575 40.525 L 58.575 26.525 L 44.575 26.525 L 44.575 40.525 Z M 44.575 21.525 L 58.575 21.525 L 58.575 7.525 L 44.575 7.525 L 44.575 21.525 Z M 63.575 92.525 L 77.575 92.525 L 77.575 78.525 L 63.575 78.525 L 63.575 92.525 Z M 63.575 73.525 L 77.575 73.525 L 77.575 59.525 L 63.575 59.525 L 63.575 73.525 Z M 63.575 54.525 L 77.575 54.525 L 77.575 40.525 L 63.575 40.525 L 63.575 54.525 Z M 63.575 35.525 L 77.575 35.525 L 77.575 21.525 L 63.575 21.525 L 63.575 35.525 Z M 63.575 16.525 L 77.575 16.525 L 77.575 2.525 L 63.575 2.525 L 63.575 16.525 Z M 82.575 98.525 L 96.575 98.525 L 96.575 84.525 L 82.575 84.525 L 82.575 98.525 Z M 82.575 79.525 L 96.575 79.525 L 96.575 65.525 L 82.575 65.525 L 82.575 79.525 Z M 82.575 60.525 L 96.575 60.525 L 96.575 46.525 L 82.575 46.525 L 82.575 60.525 Z M 82.575 41.525 L 96.575 41.525 L 96.575 27.525 L 82.575 27.525 L 82.575 41.525 Z M 82.575 22.525 L 96.575 22.525 L 96.575 8.525 L 82.575 8.525 L 82.575 22.525 Z M 101.575 100.525 L 115.575 100.525 L 115.575 86.525 L 101.575 86.525 L 101.575 100.525 Z M 101.575 81.525 L 115.575 81.525 L 115.575 67.525 L 101.575 67.525 L 101.575 81.525 Z M 101.575 62.525 L 115.575 62.525 L 115.575 48.525 L 101.575 48.525 L 101.575 62.525 Z M 101.575 43.525 L 115.575 43.525 L 115.575 29.525 L 101.575 29.525 L 101.575 43.525 Z M 101.575 24.525 L 115.575 24.525 L 115.575 10.525 L 101.575 10.525 L 101.575 24.525 Z M 121.282 102.758 L 134.438 107.547 L 139.226 94.391 L 126.07 89.603 L 121.282 102.758 Z" vector-effect="non-scaling-stroke"/></g></svg>