<svg width="166.266mm" height="126.168mm" viewBox="0 0 166.266 126.168" xmlns="http://www.w3.org/2000/svg"><g id="svgGroup" stroke-linecap="round" fill-rule="evenodd" font-size="9pt" stroke="#000" stroke-width="0.25mm" fill="none" style="stroke:#000;stroke-width:0.25mm;fill:none"><path d="M 0.5 93.05 L 42.05 93.05 L 42.05 101.05 L 93.819 101.05 L 135.853 116.349 L 149.876 126.168 L 166.266 102.761 L 148 89.971 L 148 21.3 L 118.1 21.3 L 118.1 8.5 A 0.5 0.5 0 0 0 117.6 8 L 99.1 8 L 99.1 6.5 A 0.5 0.5 0 0 0 98.6 6 L 80.1 6 L 80.1 0.5 A 0.5 0.5 0 0 0 79.6 0 L 61.55 0 A 0.5 0.5 0 0 0 61.05 0.5 L 61.05 5 L 42.55 5 A 0.5 0.5 0 0 0 42.05 5.5 L 42.05 17 L 0.5 17 A 0.5 0.5 0 0 0 0 17.5 L 0 92.55 A 0.5 0.5 0 0 0 0.5 93.05 Z" vector-effect="non-scaling-stroke"/></g></svg>