<svg width="166.266mm" height="126.168mm" viewBox="0 0 166.266 126.168" xmlns="http://www.w3.org/2000/svg"><g id="svgGroup" stroke-linecap="round" fill-rule="evenodd" font-size="9pt" stroke="#000" stroke-width="0.25mm" fill="none" style="stroke:#000;stroke-width:0.25mm;fill:none"><path d="M 0.5 93.05 L 42.05 93.05 L 42.05 101.05 L 93.819 101.05 L 135.853 116.349 L 149.876 126.168 L 166.266 102.761 L 148 89.971 L 148 21.3 L 118.1 21.3 L 118.1 8.5 A 0.5 0.5 0 0 0 117.6 8 L 99.1 8 L 99.1 6.5 A 0.5 0.5 0 0 0 98.6 6 L 80.1 6 L 80.1 0.5 A 0.5 0.5 0 0 0 79.6 0 L 61.55 0 A 0.5 0.5 0 0 0 61.05 0.5 L 61.05 5 L 42.55 5 A 0.5 0.5 0 0 0 42.05 5.5 L 42.05 17 L 0.5 17 A 0.5 0.5 0 0 0 0 17.5 L 0 92.55 A 0.5 0.5 0 0 0 0.5 93.05 Z M 145.3 91.376 L 145.3 24 L 115.4 24 L 115.4 11.2 A 0.5 0.5 0 0 0 114.9 10.7 L 96.4 10.7 L 96.4 9.2 A 0.5 0.5 0 0 0 95.9 8.7 L 77.4 8.7 L 77.4 3.2 A 0.5 0.5 0 0 0 76.9 2.7 L 64.25 2.7 A 0.5 0.5 0 0 0 63.75 3.2 L 63.75 7.7 L 45.25 7.7 A 0.5 0.5 0 0 0 44.75 8.2 L 44.75 19.7 L 3.2 19.7 A 0.5 0.5 0 0 0 2.7 20.2 L 2.7 89.85 A 0.5 0.5 0 0 0 3.2 90.35 L 44.75 90.35 L 44.75 98.35 L 94.34 98.35 L 94.335 98.364 L 137.111 113.934 L 149.213 122.407 L 162.505 103.424 L 145.3 91.376 Z M 123.8 75.5 L 144.8 75.5 L 144.8 24.5 L 123.8 24.5 L 123.8 75.5 Z M 118.718 103.954 L 135.633 110.11 L 141.789 93.196 L 124.875 87.039 L 118.718 103.954 Z M 0.525 92.525 L 18.525 92.525 L 18.525 74.525 L 0.525 74.525 L 0.525 92.525 Z M 0.525 73.525 L 18.525 73.525 L 18.525 55.525 L 0.525 55.525 L 0.525 73.525 Z M 0.525 54.525 L 18.525 54.525 L 18.525 36.525 L 0.525 36.525 L 0.525 54.525 Z M 0.525 35.525 L 18.525 35.525 L 18.525 17.525 L 0.525 17.525 L 0.525 35.525 Z M 19.525 92.525 L 37.525 92.525 L 37.525 74.525 L 19.525 74.525 L 19.525 92.525 Z M 19.525 73.525 L 37.525 73.525 L 37.525 55.525 L 19.525 55.525 L 19.525 73.525 Z M 19.525 54.525 L 37.525 54.525 L 37.525 36.525 L 19.525 36.525 L 19.525 54.525 Z M 19.525 35.525 L 37.525 35.525 L 37.525 17.525 L 19.525 17.525 L 19.525 35.525 Z M 42.575 99.525 L 60.575 99.525 L 60.575 81.525 L 42.575 81.525 L 42.575 99.525 Z M 42.575 80.525 L 60.575 80.525 L 60.575 62.525 L 42.575 62.525 L 42.575 80.525 Z M 42.575 61.525 L 60.575 61.525 L 60.575 43.525 L 42.575 43.525 L 42.575 61.525 Z M 42.575 42.525 L 60.575 42.525 L 60.575 24.525 L 42.575 24.525 L 42.575 42.525 Z M 42.575 23.525 L 60.575 23.525 L 60.575 5.525 L 42.575 5.525 L 42.575 23.525 Z M 61.575 94.525 L 79.575 94.525 L 79.575 76.525 L 61.575 76.525 L 61.575 94.525 Z M 61.575 75.525 L 79.575 75.525 L 79.575 57.525 L 61.575 57.525 L 61.575 75.525 Z M 61.575 56.525 L 79.575 56.525 L 79.575 38.525 L 61.575 38.525 L 61.575 56.525 Z M 61.575 37.525 L 79.575 37.525 L 79.575 19.525 L 61.575 19.525 L 61.575 37.525 Z M 61.575 18.525 L 79.575 18.525 L 79.575 0.525 L 61.575 0.525 L 61.575 18.525 Z M 80.575 100.525 L 98.575 100.525 L 98.575 82.525 L 80.575 82.525 L 80.575 100.525 Z M 80.575 81.525 L 98.575 81.525 L 98.575 63.525 L 80.575 63.525 L 80.575 81.525 Z M 80.575 62.525 L 98.575 62.525 L 98.575 44.525 L 80.575 44.525 L 80.575 62.525 Z M 80.575 43.525 L 98.575 43.525 L 98.575 25.525 L 80.575 25.525 L 80.575 43.525 Z M 80.575 24.525 L 98.575 24.525 L 98.575 6.525 L 80.575 6.525 L 80.575 24.525 Z M 99.575 102.525 L 117.575 102.525 L 117.575 84.525 L 99.575 84.525 L 99.575 102.525 Z M 99.575 83.525 L 117.575 83.525 L 117.575 65.525 L 99.575 65.525 L 99.575 83.525 Z M 99.575 64.525 L 117.575 64.525 L 117.575 46.525 L 99.575 46.525 L 99.575 64.525 Z M 99.575 45.525 L 117.575 45.525 L 117.575 27.525 L 99.575 27.525 L 99.575 45.525 Z M 99.575 26.525 L 117.575 26.525 L 117.575 8.525 L 99.575 8.525 L 99.575 26.525 Z M 137.734 111.211 L 152.478 121.535 L 162.803 106.791 L 148.058 96.466 L 137.734 111.211 Z M 140.519 110.72 L 151.987 118.75 L 160.017 107.282 L 148.549 99.252 L 140.519 110.72 Z M 2.525 90.525 L 16.525 90.525 L 16.525 76.525 L 2.525 76.525 L 2.525 90.525 Z M 2.525 71.525 L 16.525 71.525 L 16.525 57.525 L 2.525 57.525 L 2.525 71.525 Z M 2.525 52.525 L 16.525 52.525 L 16.525 38.525 L 2.525 38.525 L 2.525 52.525 Z M 2.525 33.525 L 16.525 33.525 L 16.525 19.525 L 2.525 19.525 L 2.525 33.525 Z M 21.525 90.525 L 35.525 90.525 L 35.525 76.525 L 21.525 76.525 L 21.525 90.525 Z M 21.525 71.525 L 35.525 71.525 L 35.525 57.525 L 21.525 57.525 L 21.525 71.525 Z M 21.525 52.525 L 35.525 52.525 L 35.525 38.525 L 21.525 38.525 L 21.525 52.525 Z M 21.525 33.525 L 35.525 33.525 L 35.525 19.525 L 21.525 19.525 L 21.525 33.525 Z M 44.575 97.525 L 58.575 97.525 L 58.575 83.525 L 44.575 83.525 L 44.575 97.525 Z M 44.575 78.525 L 58.575 78.525 L 58.575 64.525 L 44.575 64.525 L 44.575 78.525 Z M 44.575 59.525 L 58.575 59.525 L 58.575 45.525 L 44.575 45.525 L 44.575 59.525 Z M 44.575 40.525 L 58.575 40.525 L 58.575 26.525 L 44.575 26.525 L 44.575 40.525 Z M 44.575 21.525 L 58.575 21.525 L 58.575 7.525 L 44.575 7.525 L 44.575 21.525 Z M 63.575 92.525 L 77.575 92.525 L 77.575 78.525 L 63.575 78.525 L 63.575 92.525 Z M 63.575 73.525 L 77.575 73.525 L 77.575 59.525 L 63.575 59.525 L 63.575 73.525 Z M 63.575 54.525 L 77.575 54.525 L 77.575 40.525 L 63.575 40.525 L 63.575 54.525 Z M 63.575 35.525 L 77.575 35.525 L 77.575 21.525 L 63.575 21.525 L 63.575 35.525 Z M 63.575 16.525 L 77.575 16.525 L 77.575 2.525 L 63.575 2.525 L 63.575 16.525 Z M 82.575 98.525 L 96.575 98.525 L 96.575 84.525 L 82.575 84.525 L 82.575 98.525 Z M 82.575 79.525 L 96.575 79.525 L 96.575 65.525 L 82.575 65.525 L 82.575 79.525 Z M 82.575 60.525 L 96.575 60.525 L 96.575 46.525 L 82.575 46.525 L 82.575 60.525 Z M 82.575 41.525 L 96.575 41.525 L 96.575 27.525 L 82.575 27.525 L 82.575 41.525 Z M 82.575 22.525 L 96.575 22.525 L 96.575 8.525 L 82.575 8.525 L 82.575 22.525 Z M 101.575 100.525 L 115.575 100.525 L 115.575 86.525 L 101.575 86.525 L 101.575 100.525 Z M 101.575 81.525 L 115.575 81.525 L 115.575 67.525 L 101.575 67.525 L 101.575 81.525 Z M 101.575 62.525 L 115.575 62.525 L 115.575 48.525 L 101.575 48.525 L 101.575 62.525 Z M 101.575 43.525 L 115.575 43.525 L 115.575 29.525 L 101.575 29.525 L 101.575 43.525 Z M 101.575 24.525 L 115.575 24.525 L 115.575 10.525 L 101.575 10.525 L 101.575 24.525 Z M 121.282 102.758 L 134.438 107.547 L 139.226 94.391 L 126.07 89.603 L 121.282 102.758 Z M 7.025 91.525 L 12.025 91.525 L 12.025 75.525 L 7.025 75.525 L 7.025 91.525 Z M 7.025 72.525 L 12.025 72.525 L 12.025 56.525 L 7.025 56.525 L 7.025 72.525 Z M 7.025 53.525 L 12.025 53.525 L 12.025 37.525 L 7.025 37.525 L 7.025 53.525 Z M 7.025 34.525 L 12.025 34.525 L 12.025 18.525 L 7.025 18.525 L 7.025 34.525 Z M 26.025 91.525 L 31.025 91.525 L 31.025 75.525 L 26.025 75.525 L 26.025 91.525 Z M 26.025 72.525 L 31.025 72.525 L 31.025 56.525 L 26.025 56.525 L 26.025 72.525 Z M 26.025 53.525 L 31.025 53.525 L 31.025 37.525 L 26.025 37.525 L 26.025 53.525 Z M 26.025 34.525 L 31.025 34.525 L 31.025 18.525 L 26.025 18.525 L 26.025 34.525 Z M 49.075 98.525 L 54.075 98.525 L 54.075 82.525 L 49.075 82.525 L 49.075 98.525 Z M 49.075 79.525 L 54.075 79.525 L 54.075 63.525 L 49.075 63.525 L 49.075 79.525 Z M 49.075 60.525 L 54.075 60.525 L 54.075 44.525 L 49.075 44.525 L 49.075 60.525 Z M 49.075 41.525 L 54.075 41.525 L 54.075 25.525 L 49.075 25.525 L 49.075 41.525 Z M 49.075 22.525 L 54.075 22.525 L 54.075 6.525 L 49.075 6.525 L 49.075 22.525 Z M 68.075 93.525 L 73.075 93.525 L 73.075 77.525 L 68.075 77.525 L 68.075 93.525 Z M 68.075 74.525 L 73.075 74.525 L 73.075 58.525 L 68.075 58.525 L 68.075 74.525 Z M 68.075 55.525 L 73.075 55.525 L 73.075 39.525 L 68.075 39.525 L 68.075 55.525 Z M 68.075 36.525 L 73.075 36.525 L 73.075 20.525 L 68.075 20.525 L 68.075 36.525 Z M 68.075 17.525 L 73.075 17.525 L 73.075 1.525 L 68.075 1.525 L 68.075 17.525 Z M 87.075 99.525 L 92.075 99.525 L 92.075 83.525 L 87.075 83.525 L 87.075 99.525 Z M 87.075 80.525 L 92.075 80.525 L 92.075 64.525 L 87.075 64.525 L 87.075 80.525 Z M 87.075 61.525 L 92.075 61.525 L 92.075 45.525 L 87.075 45.525 L 87.075 61.525 Z M 87.075 42.525 L 92.075 42.525 L 92.075 26.525 L 87.075 26.525 L 87.075 42.525 Z M 87.075 23.525 L 92.075 23.525 L 92.075 7.525 L 87.075 7.525 L 87.075 23.525 Z M 106.075 101.525 L 111.075 101.525 L 111.075 85.525 L 106.075 85.525 L 106.075 101.525 Z M 106.075 82.525 L 111.075 82.525 L 111.075 66.525 L 106.075 66.525 L 106.075 82.525 Z M 106.075 63.525 L 111.075 63.525 L 111.075 47.525 L 106.075 47.525 L 106.075 63.525 Z M 106.075 44.525 L 111.075 44.525 L 111.075 28.525 L 106.075 28.525 L 106.075 44.525 Z M 106.075 25.525 L 111.075 25.525 L 111.075 9.525 L 106.075 9.525 L 106.075 25.525 Z M 125.168 105.237 L 129.867 106.947 L 135.339 91.912 L 130.641 90.202 L 125.168 105.237 Z M 143.632 114.12 L 147.728 116.988 L 156.905 103.882 L 152.809 101.014 L 143.632 114.12 Z M 124.1 63.025 L 129.1 63.025 L 129.1 48.025 L 124.1 48.025 L 124.1 63.025 Z M 144.4 88 L 148.9 88 L 148.9 77 L 144.4 77 L 144.4 88 Z M 145.3 88.65 L 138.3 88.65 L 138.3 76.35 L 145.3 76.35 M 130.3 24.9 L 138.3 24.9 L 138.3 20.4 L 130.3 20.4 L 130.3 24.9 Z M 131.55 39.275 L 137.05 39.275 L 137.05 33.775 L 131.55 33.775 L 131.55 39.275 Z M 19.05 36.05 m -3.5 0 a 3.5 3.5 0 0 1 7 0 a 3.5 3.5 0 0 1 -7 0 z M 120.1 36.525 m -3.5 0 a 3.5 3.5 0 0 1 7 0 a 3.5 3.5 0 0 1 -7 0 z M 19.05 74 m -3.5 0 a 3.5 3.5 0 0 1 7 0 a 3.5 3.5 0 0 1 -7 0 z M 120.1 84 m -3.5 0 a 3.5 3.5 0 0 1 7 0 a 3.5 3.5 0 0 1 -7 0 z M 19.05 36.05 m -2.6 0 a 2.6 2.6 0 0 1 5.2 0 a 2.6 2.6 0 0 1 -5.2 0 z M 120.1 36.525 m -2.6 0 a 2.6 2.6 0 0 1 5.2 0 a 2.6 2.6 0 0 1 -5.2 0 z M 19.05 74 m -2.6 0 a 2.6 2.6 0 0 1 5.2 0 a 2.6 2.6 0 0 1 -5.2 0 z M 120.1 84 m -2.6 0 a 2.6 2.6 0 0 1 5.2 0 a 2.6 2.6 0 0 1 -5.2 0 z" vector-effect="non-scaling-stroke"/></g></svg>